<svg width="2065" height="773" viewBox="0 0 2065 773" fill="none" xmlns="http://www.w3.org/2000/svg">
<path d="M274.101 0.147433C274.852 0.14568 275.603 0.143927 276.378 0.142121C278.885 0.137483 281.393 0.139921 283.901 0.142355C285.721 0.140486 287.541 0.138185 289.361 0.13549C294.355 0.129377 299.35 0.129504 304.344 0.130684C309.733 0.130888 315.123 0.125368 320.512 0.120626C331.069 0.112322 341.626 0.109572 352.183 0.109014C360.765 0.108539 369.348 0.106483 377.931 0.103313C402.272 0.0945071 426.613 0.0898939 450.954 0.0906439C452.266 0.0906838 453.578 0.0907238 454.93 0.0907649C456.244 0.0908058 457.557 0.0908467 458.911 0.0908888C480.195 0.0912952 501.479 0.0817283 522.764 0.0676266C544.625 0.0532569 566.487 0.0463567 588.348 0.0472203C600.619 0.0475521 612.89 0.044813 625.16 0.0340423C635.609 0.0249295 646.058 0.0227684 656.507 0.0295517C661.835 0.0328131 667.163 0.0328874 672.492 0.0241985C677.376 0.0163156 682.26 0.0177832 687.144 0.0264826C688.905 0.0280137 690.665 0.0262164 692.426 0.0206225C715.222 -0.0469751 734.684 3.63221 751.932 19.7995C761.834 30.3677 768.591 45.7541 768.513 60.2566C768.517 61.0344 768.52 61.8122 768.524 62.6135C768.535 65.2172 768.531 67.8208 768.527 70.4245C768.531 72.3112 768.537 74.1978 768.543 76.0845C768.557 81.2674 768.559 86.4503 768.558 91.6333C768.56 97.2238 768.573 102.814 768.584 108.405C768.607 120.628 768.615 132.851 768.62 145.074C768.623 152.707 768.63 160.34 768.637 167.972C768.657 189.107 768.673 210.242 768.676 231.377C768.676 232.052 768.676 232.728 768.676 233.424C768.677 236.163 768.677 238.902 768.677 241.64C768.678 243.701 768.678 245.763 768.678 247.824C768.678 248.505 768.678 249.186 768.679 249.888C768.681 271.284 768.704 292.68 768.74 314.077C768.781 338.123 768.804 362.169 768.805 386.215C768.805 398.944 768.814 411.673 768.843 424.402C768.867 435.24 768.874 446.078 768.859 456.916C768.852 462.445 768.853 467.973 768.876 473.502C768.896 478.567 768.894 483.632 768.873 488.697C768.869 490.525 768.874 492.354 768.888 494.182C768.995 508.68 767.156 519.008 756.68 529.862C755.879 530.659 755.078 531.455 754.253 532.276C753.488 533.065 752.723 533.854 751.934 534.666C749.478 537.19 746.996 539.686 744.506 542.177C743.556 543.13 742.607 544.084 741.658 545.038C739.078 547.63 736.494 550.22 733.91 552.808C731.113 555.612 728.318 558.418 725.523 561.223C718.792 567.978 712.057 574.729 705.32 581.478C703.416 583.386 701.512 585.294 699.608 587.202C687.764 599.072 675.918 610.94 664.067 622.803C661.33 625.543 658.593 628.283 655.857 631.022C655.176 631.703 654.496 632.384 653.795 633.086C642.763 644.131 631.74 655.187 620.722 666.247C609.392 677.619 598.053 688.981 586.705 700.335C580.34 706.703 573.98 713.075 567.63 719.458C562.227 724.889 556.816 730.311 551.393 735.723C548.629 738.482 545.869 741.244 543.12 744.018C540.6 746.561 538.068 749.092 535.527 751.614C534.184 752.953 532.852 754.305 531.521 755.657C522.85 764.216 513.414 769.186 501.085 769.307C488.436 768.714 478.548 764.28 470.003 754.901C464.227 747.803 462.127 741.104 462.13 732.037C462.129 731.303 462.127 730.569 462.126 729.813C462.124 727.34 462.128 724.867 462.132 722.395C462.132 720.609 462.131 718.824 462.13 717.039C462.128 712.122 462.132 707.206 462.137 702.289C462.141 696.991 462.14 691.694 462.139 686.396C462.138 677.213 462.141 668.031 462.147 658.849C462.155 645.572 462.158 632.296 462.159 619.02C462.161 597.481 462.168 575.943 462.177 554.404C462.186 533.478 462.194 512.552 462.198 491.627C462.198 489.693 462.198 489.693 462.199 487.72C462.2 481.252 462.201 474.784 462.202 468.315C462.213 414.636 462.23 360.956 462.253 307.276C460.888 307.279 460.888 307.279 459.497 307.282C405.585 307.394 351.674 307.48 297.763 307.531C291.289 307.538 284.815 307.544 278.342 307.551C277.053 307.552 275.764 307.553 274.436 307.555C253.57 307.576 232.704 307.616 211.839 307.662C190.427 307.709 169.016 307.736 147.604 307.747C134.393 307.753 121.182 307.775 107.97 307.816C98.9101 307.842 89.8498 307.85 80.7894 307.844C75.5626 307.84 70.3361 307.845 65.1094 307.872C60.3197 307.897 55.5305 307.898 50.7408 307.881C49.0125 307.878 47.2841 307.885 45.5558 307.9C31.5705 308.02 20.7237 305.706 10.3777 295.659C3.03042 287.42 -0.382741 276.67 0.033992 265.678C2.07775 243.234 23.2309 228.142 38.1661 213.203C40.8659 210.501 43.5628 207.797 46.2601 205.092C52.1373 199.202 58.0182 193.315 63.8999 187.429C67.5773 183.749 71.2539 180.068 74.9303 176.387C85.1269 166.178 95.3245 155.97 105.525 145.766C106.176 145.115 106.827 144.464 107.497 143.793C108.149 143.141 108.801 142.489 109.473 141.817C110.794 140.495 112.116 139.173 113.437 137.852C114.092 137.196 114.747 136.541 115.423 135.865C126.059 125.225 136.688 114.578 147.315 103.929C158.247 92.9727 169.185 82.0225 180.128 71.0779C186.264 64.9413 192.397 58.8024 198.524 52.6572C203.735 47.4302 208.952 42.2084 214.176 36.9932C216.838 34.335 219.497 31.6744 222.151 29.0071C225.031 26.1115 227.923 23.2277 230.816 20.3448C231.647 19.5067 232.477 18.6686 233.332 17.805C245.406 5.83217 257.04 0.0961768 274.101 0.147433Z" fill="#038F39"></path>
<path d="M1264.88 0.149019C1265.61 0.147459 1266.35 0.145899 1267.11 0.144292C1269.56 0.140325 1272.01 0.143456 1274.46 0.146609C1276.23 0.145252 1277.99 0.143471 1279.76 0.141299C1284.55 0.136742 1289.34 0.138508 1294.13 0.141678C1299.17 0.14422 1304.22 0.141858 1309.26 0.140291C1317.76 0.138471 1326.25 0.140868 1334.75 0.145632C1344.49 0.151034 1354.23 0.149341 1363.98 0.143806C1372.39 0.139221 1380.8 0.138651 1389.21 0.141244C1394.21 0.142783 1399.22 0.143068 1404.22 0.139708C1466.26 0.10383 1466.26 0.10383 1486.71 2.93274C1489.76 3.3447 1492.82 3.7129 1495.87 4.0846C1538.48 9.42086 1586.27 20.6544 1617.88 51.9362C1620.19 54.3044 1620.19 54.3044 1622.74 56.1901C1625.74 58.6825 1628.07 61.5142 1630.44 64.5885C1630.91 65.2017 1631.39 65.8149 1631.88 66.4467C1646.05 84.9885 1654.89 103.814 1661.25 126.276C1661.5 127.132 1661.74 127.988 1661.99 128.869C1672.52 166.741 1673.29 211.66 1666.25 250.276C1666.04 251.492 1666.04 251.492 1665.81 252.732C1664.84 257.975 1663.63 263.127 1662.25 268.276C1662.04 269.066 1661.83 269.857 1661.62 270.671C1657.07 287.48 1651.35 303.954 1641.25 318.276C1640.58 319.309 1639.9 320.341 1639.2 321.405C1635.26 327.343 1631.11 332.819 1626.32 338.089C1625.84 338.61 1625.37 339.132 1624.88 339.67C1623.72 340.916 1622.49 342.102 1621.25 343.276C1620.59 343.276 1619.93 343.276 1619.25 343.276C1619.03 343.843 1618.81 344.41 1618.59 344.995C1605.39 367.534 1563.11 379.428 1539.88 385.578C1537.62 386.178 1535.38 386.806 1533.14 387.452C1500.3 396.442 1465.26 397.088 1431.44 397.381C1426.78 397.423 1422.12 397.474 1417.45 397.527C1414.09 397.565 1410.73 397.593 1407.36 397.604C1403.53 397.62 1399.71 397.659 1395.89 397.702C1394.73 397.7 1393.58 397.698 1392.39 397.696C1385.56 397.8 1381.07 398.618 1375.25 402.276C1373.37 404.194 1373.37 404.194 1372.32 406.339C1371.93 407.01 1371.55 407.682 1371.16 408.374C1369.55 411.746 1369.13 414.406 1369.12 418.094C1369.12 419.086 1369.11 420.079 1369.11 421.101C1369.11 422.189 1369.11 423.277 1369.11 424.398C1369.11 425.544 1369.1 426.691 1369.1 427.872C1369.09 430.367 1369.09 432.862 1369.08 435.356C1369.08 439.308 1369.06 443.259 1369.04 447.21C1369.04 448.565 1369.03 449.919 1369.02 451.273C1369.02 451.951 1369.02 452.629 1369.01 453.328C1368.97 462.525 1368.94 471.722 1368.93 480.92C1368.92 487.125 1368.9 493.331 1368.86 499.536C1368.84 502.817 1368.83 506.097 1368.83 509.378C1368.83 513.045 1368.81 516.711 1368.78 520.378C1368.79 521.454 1368.8 522.529 1368.8 523.638C1368.71 531.316 1367.31 537.632 1362.29 543.616C1361.64 544.143 1360.99 544.67 1360.32 545.214C1359.67 545.759 1359.02 546.304 1358.35 546.866C1352.9 550.533 1348.01 550.573 1341.63 550.567C1340.19 550.577 1340.19 550.577 1338.71 550.587C1335.53 550.606 1332.35 550.61 1329.17 550.612C1326.96 550.618 1324.74 550.625 1322.52 550.632C1317.88 550.644 1313.23 550.648 1308.59 550.647C1302.65 550.646 1296.71 550.674 1290.77 550.708C1286.19 550.73 1281.61 550.734 1277.04 550.733C1274.85 550.736 1272.66 550.745 1270.47 550.76C1267.4 550.78 1264.33 550.774 1261.26 550.762C1260.36 550.773 1259.46 550.784 1258.54 550.796C1251.72 550.728 1246.6 548.977 1241.26 544.671C1235.39 537.656 1233.8 530.222 1233.88 521.236C1233.87 520.368 1233.87 519.5 1233.87 518.606C1233.86 515.707 1233.87 512.809 1233.88 509.91C1233.88 507.807 1233.87 505.704 1233.87 503.601C1233.86 497.83 1233.86 492.059 1233.88 486.287C1233.88 480.06 1233.88 473.833 1233.87 467.606C1233.86 456.116 1233.87 444.625 1233.88 433.135C1233.89 422.522 1233.89 411.908 1233.89 401.295C1233.89 400.591 1233.89 399.887 1233.89 399.161C1233.89 396.303 1233.89 393.444 1233.89 390.586C1233.88 363.778 1233.9 336.971 1233.92 310.163C1233.94 286.343 1233.94 262.523 1233.94 238.703C1233.94 237.173 1233.94 235.643 1233.94 234.113C1233.94 233.356 1233.94 232.6 1233.94 231.821C1233.93 228.013 1233.93 224.206 1233.93 220.399C1233.93 219.647 1233.93 218.896 1233.93 218.122C1233.93 198.219 1233.93 178.316 1233.94 158.412C1233.94 156.271 1233.94 154.13 1233.95 151.989C1233.95 150.568 1233.95 149.148 1233.95 147.727C1233.95 137.821 1233.95 127.915 1233.95 118.009C1233.95 105.247 1233.95 92.4838 1233.97 79.721C1233.97 73.5654 1233.98 67.4098 1233.97 61.2542C1233.97 55.6234 1233.98 49.9926 1233.99 44.3618C1233.99 42.321 1233.99 40.2801 1233.99 38.2392C1233.98 35.4722 1233.99 32.7054 1234 29.9384C1233.99 29.1401 1233.99 28.3418 1233.98 27.5194C1234.04 19.7815 1236.32 13.2842 1241.25 7.276C1248.6 0.896141 1255.3 0.151773 1264.88 0.149019ZM1373.19 121.53C1372.74 122.292 1372.28 123.054 1371.82 123.839C1371.34 124.603 1370.87 125.367 1370.38 126.155C1368.44 129.81 1368.12 132.67 1368.11 136.746C1368.1 137.883 1368.09 139.02 1368.08 140.191C1368.08 141.439 1368.08 142.688 1368.08 143.974C1368.07 145.288 1368.06 146.602 1368.06 147.956C1368.03 152.317 1368.02 156.677 1368.01 161.038C1368.01 162.54 1368.01 164.043 1368 165.546C1367.98 172.608 1367.97 179.67 1367.96 186.731C1367.95 194.874 1367.92 203.017 1367.88 211.16C1367.85 217.459 1367.84 223.758 1367.84 230.057C1367.83 233.816 1367.82 237.576 1367.8 241.335C1367.78 244.875 1367.77 248.415 1367.78 251.955C1367.78 253.865 1367.76 255.774 1367.74 257.683C1367.79 265.766 1368.77 271.23 1374.18 277.518C1374.82 278.057 1375.47 278.596 1376.13 279.151C1377.08 279.982 1377.08 279.982 1378.06 280.831C1382.47 283.736 1386.88 284.526 1392.09 284.535C1393.79 284.544 1393.79 284.544 1395.52 284.554C1396.73 284.55 1397.94 284.546 1399.19 284.542C1400.46 284.544 1401.73 284.545 1403.04 284.547C1405.74 284.549 1408.44 284.546 1411.13 284.537C1413.85 284.528 1416.57 284.527 1419.29 284.537C1471.99 284.769 1471.99 284.769 1517.25 260.276C1518.91 258.139 1520.39 256.114 1521.82 253.839C1522.2 253.227 1522.59 252.616 1522.98 251.986C1536.85 229.162 1537.93 195.686 1532.29 169.96C1527.15 151.72 1519.06 137.042 1502.25 127.276C1495.81 123.69 1489.09 121.506 1482 119.589C1481.27 119.386 1480.53 119.184 1479.77 118.975C1466.59 115.592 1453.41 114.953 1439.88 114.94C1438.26 114.934 1436.64 114.927 1435.03 114.92C1431.67 114.908 1428.31 114.904 1424.94 114.905C1420.66 114.906 1416.37 114.878 1412.08 114.844C1408.75 114.822 1405.42 114.818 1402.09 114.819C1400.51 114.816 1398.93 114.808 1397.34 114.792C1384.01 114.477 1384.01 114.477 1373.19 121.53Z" fill="white"></path>
<path d="M1735.28 0.0218207C1737.22 0.0171407 1737.22 0.0171407 1739.19 0.0123662C1742.76 0.00405419 1746.33 0.00812702 1749.9 0.0143386C1753.75 0.0188769 1757.61 0.0118726 1761.46 0.0063788C1769 -0.00250199 1776.55 -0.000599134 1784.09 0.00520408C1790.22 0.0097254 1796.35 0.0103314 1802.48 0.00815644C1803.79 0.00769675 1803.79 0.00769675 1805.13 0.00722776C1806.91 0.00658829 1808.68 0.00593987 1810.46 0.00528258C1827.08 -0.000416783 1843.71 0.00613116 1860.34 0.0168833C1874.61 0.02582 1888.87 0.024265 1903.13 0.0150458C1919.71 0.0043389 1936.28 0.000130847 1952.85 0.00627032C1954.62 0.0069074 1956.39 0.00753614 1958.15 0.00815644C1959.02 0.008465 1959.89 0.00877355 1960.79 0.00909145C1966.91 0.010817 1973.04 0.0079063 1979.16 0.00319734C1986.62 -0.00241607 1994.09 -0.000885304 2001.55 0.00975883C2005.36 0.0150091 2009.16 0.0170832 2012.97 0.0104605C2017.1 0.00338649 2021.23 0.0118426 2025.35 0.0218207C2026.55 0.0173592 2027.75 0.0128978 2028.99 0.00830116C2038.64 0.0535938 2046.66 0.772017 2053.89 7.88126C2059.2 13.693 2060.56 19.132 2060.53 26.9743C2060.54 28.0951 2060.54 28.0951 2060.54 29.2385C2060.56 31.695 2060.56 34.1513 2060.55 36.6078C2060.56 38.3265 2060.56 40.0451 2060.57 41.7637C2060.57 45.3623 2060.57 48.9607 2060.57 52.5592C2060.56 57.1522 2060.58 61.7448 2060.6 66.3377C2060.62 69.8869 2060.62 73.4361 2060.62 76.9853C2060.62 78.6777 2060.62 80.37 2060.63 82.0623C2060.73 101.462 2060.73 101.462 2055.56 108.616C2054.94 109.143 2054.33 109.67 2053.69 110.213C2053.09 110.759 2052.49 111.304 2051.87 111.866C2042.57 116.869 2030.87 115.55 2020.62 115.515C2018.74 115.516 2016.86 115.518 2014.98 115.521C2010.95 115.526 2006.91 115.525 2002.88 115.52C1996.5 115.512 1990.12 115.523 1983.74 115.537C1965.61 115.574 1947.47 115.593 1929.34 115.581C1919.31 115.575 1909.28 115.587 1899.25 115.618C1892.91 115.636 1886.58 115.633 1880.24 115.613C1876.29 115.607 1872.35 115.621 1868.4 115.64C1866.58 115.645 1864.75 115.642 1862.93 115.629C1850.17 115.316 1850.17 115.316 1839.25 121.276C1837.39 123.284 1837.39 123.284 1836.32 125.401C1835.74 126.395 1835.74 126.395 1835.16 127.409C1833.27 131.291 1833.11 134.446 1833.06 138.716C1833.05 139.365 1833.04 140.014 1833.04 140.683C1833.01 142.831 1832.99 144.979 1832.98 147.127C1832.97 148.232 1832.97 148.232 1832.96 149.358C1832.94 153.259 1832.92 157.16 1832.9 161.06C1832.89 164.277 1832.86 167.493 1832.82 170.709C1832.77 174.603 1832.75 178.496 1832.74 182.39C1832.73 183.868 1832.72 185.345 1832.69 186.823C1832.56 195.307 1832.76 202.376 1838.25 209.276C1843.72 214.608 1849.34 216.73 1856.9 216.648C1857.65 216.651 1858.4 216.655 1859.17 216.659C1861.68 216.668 1864.18 216.657 1866.68 216.645C1868.48 216.647 1870.28 216.651 1872.08 216.656C1875.95 216.664 1879.82 216.664 1883.69 216.656C1889.81 216.644 1895.93 216.657 1902.06 216.673C1917.27 216.709 1932.48 216.715 1947.69 216.712C1959.51 216.711 1971.33 216.718 1983.15 216.752C1989.23 216.769 1995.31 216.767 2001.39 216.752C2005.19 216.746 2008.98 216.757 2012.77 216.772C2014.52 216.776 2016.27 216.772 2018.02 216.762C2035.59 216.664 2035.59 216.664 2042.25 221.276C2044.19 223.346 2044.19 223.346 2045.25 225.401C2045.62 226.084 2046 226.767 2046.38 227.471C2046.81 228.364 2046.81 228.364 2047.25 229.276C2047.58 229.936 2047.91 230.596 2048.25 231.276C2048.37 233.766 2048.43 236.229 2048.45 238.72C2048.45 239.487 2048.46 240.255 2048.47 241.046C2048.5 243.594 2048.51 246.142 2048.53 248.69C2048.53 249.561 2048.54 250.431 2048.54 251.329C2048.57 255.941 2048.59 260.554 2048.6 265.167C2048.62 269.922 2048.66 274.676 2048.72 279.43C2048.75 283.094 2048.76 286.757 2048.77 290.42C2048.77 292.172 2048.79 293.924 2048.81 295.675C2049.03 312.232 2049.03 312.232 2044.63 317.879C2039.98 322.598 2036.7 325.141 2029.92 325.406C2028.58 325.414 2027.23 325.416 2025.88 325.414C2025.13 325.417 2024.39 325.419 2023.62 325.422C2021.12 325.431 2018.62 325.432 2016.13 325.434C2014.34 325.438 2012.55 325.443 2010.76 325.449C2006.9 325.46 2003.04 325.469 1999.18 325.475C1993.08 325.486 1986.98 325.506 1980.88 325.528C1963.53 325.59 1946.17 325.644 1928.82 325.677C1919.24 325.696 1909.66 325.724 1900.08 325.765C1895.01 325.786 1889.94 325.802 1884.87 325.804C1880.1 325.806 1875.33 325.822 1870.56 325.848C1868.81 325.856 1867.06 325.858 1865.31 325.854C1862.92 325.85 1860.53 325.865 1858.14 325.884C1857.45 325.878 1856.76 325.873 1856.06 325.867C1850.13 325.947 1844.63 327.293 1840.01 331.143C1839.47 331.806 1838.93 332.468 1838.38 333.151C1837.82 333.808 1837.27 334.466 1836.7 335.143C1833.48 339.892 1832.95 344.215 1832.95 349.845C1832.93 350.963 1832.93 350.963 1832.92 352.104C1832.9 354.561 1832.89 357.018 1832.88 359.475C1832.87 361.193 1832.86 362.91 1832.85 364.628C1832.84 368.228 1832.83 371.829 1832.83 375.429C1832.82 380.021 1832.78 384.612 1832.74 389.204C1832.71 392.753 1832.7 396.302 1832.7 399.852C1832.7 401.543 1832.68 403.235 1832.66 404.926C1832.56 414.194 1832.52 422.467 1838.25 430.276C1840.65 432.796 1840.65 432.796 1843.25 434.276C1843.87 434.668 1844.49 435.06 1845.13 435.463C1850.64 437.572 1856.67 437.422 1862.5 437.414C1863.3 437.417 1864.1 437.419 1864.93 437.422C1867.6 437.431 1870.27 437.432 1872.94 437.434C1874.87 437.438 1876.79 437.443 1878.71 437.449C1882.84 437.46 1886.98 437.469 1891.11 437.475C1897.64 437.486 1904.18 437.506 1910.71 437.528C1929.29 437.59 1947.87 437.644 1966.44 437.677C1976.71 437.695 1986.98 437.724 1997.24 437.765C2002.67 437.786 2008.1 437.802 2013.53 437.804C2018.64 437.806 2023.74 437.822 2028.85 437.848C2030.72 437.856 2032.59 437.858 2034.47 437.854C2037.02 437.85 2039.58 437.865 2042.14 437.884C2042.88 437.878 2043.62 437.873 2044.38 437.867C2049.88 437.937 2053.83 439.282 2058.08 442.784C2058.55 443.317 2059.02 443.851 2059.5 444.401C2059.98 444.919 2060.46 445.437 2060.96 445.971C2065.61 454.236 2064.58 464.555 2064.59 473.737C2064.6 475.334 2064.6 476.932 2064.61 478.529C2064.62 481.866 2064.62 485.203 2064.62 488.539C2064.62 492.788 2064.65 497.036 2064.68 501.285C2064.71 504.581 2064.71 507.877 2064.71 511.173C2064.71 512.738 2064.72 514.304 2064.74 515.869C2064.92 535.965 2064.92 535.965 2058.3 543.502C2053.01 548.561 2047.73 550.52 2040.39 550.539C2039.23 550.546 2038.08 550.554 2036.89 550.562C2035.63 550.56 2034.37 550.558 2033.07 550.557C2031.71 550.562 2030.35 550.568 2028.99 550.575C2025.26 550.591 2021.53 550.594 2017.8 550.596C2013.78 550.6 2009.75 550.615 2005.73 550.628C1996.93 550.655 1988.13 550.667 1979.34 550.676C1973.84 550.682 1968.35 550.69 1962.85 550.699C1947.63 550.724 1932.42 550.744 1917.2 550.751C1915.74 550.752 1915.74 550.752 1914.25 550.752C1913.27 550.753 1912.3 550.753 1911.29 550.754C1909.31 550.754 1907.34 550.755 1905.36 550.756C1904.38 550.757 1903.4 550.757 1902.39 550.758C1886.49 550.766 1870.6 550.8 1854.7 550.847C1838.38 550.894 1822.05 550.919 1805.73 550.922C1796.57 550.924 1787.4 550.935 1778.24 550.971C1770.44 551.002 1762.64 551.012 1754.83 550.996C1750.86 550.988 1746.88 550.99 1742.9 551.018C1739.25 551.043 1735.6 551.041 1731.96 551.017C1730.02 551.011 1728.09 551.035 1726.15 551.06C1718.05 550.968 1712.66 549.321 1706.25 544.276C1700.75 538.637 1699.96 533.272 1700 525.609C1699.99 524.733 1699.99 523.856 1699.98 522.953C1699.98 520.003 1699.98 517.052 1699.99 514.101C1699.98 511.97 1699.98 509.839 1699.97 507.708C1699.96 501.84 1699.96 495.972 1699.96 490.104C1699.96 483.78 1699.95 477.456 1699.94 471.132C1699.93 458.738 1699.92 446.344 1699.92 433.95C1699.92 423.878 1699.91 413.807 1699.91 403.735C1699.91 400.837 1699.9 397.939 1699.9 395.041C1699.9 394.32 1699.9 393.6 1699.9 392.858C1699.89 372.59 1699.88 352.322 1699.88 332.054C1699.88 331.29 1699.88 330.526 1699.88 329.738C1699.88 325.864 1699.88 321.99 1699.88 318.117C1699.88 317.347 1699.88 316.578 1699.88 315.785C1699.88 314.229 1699.88 312.673 1699.88 311.117C1699.88 286.908 1699.87 262.7 1699.84 238.491C1699.81 211.299 1699.79 184.107 1699.8 156.915C1699.8 154.016 1699.8 151.117 1699.8 148.218C1699.8 147.504 1699.8 146.791 1699.8 146.055C1699.8 134.563 1699.78 123.072 1699.77 111.58C1699.75 100.032 1699.75 88.4842 1699.76 76.9364C1699.77 70.6793 1699.77 64.4223 1699.75 58.1652C1699.73 52.4391 1699.74 46.7132 1699.75 40.9871C1699.76 38.9138 1699.75 36.8404 1699.74 34.7671C1699.73 31.9511 1699.74 29.1363 1699.75 26.3204C1699.75 25.5134 1699.74 24.7064 1699.72 23.8749C1699.81 17.2208 1701.79 11.9812 1706.3 7.0336C1707 6.49477 1707.71 5.95594 1708.44 5.40079C1709.14 4.84649 1709.83 4.29219 1710.55 3.7211C1718.2 -0.366372 1726.81 -0.00969923 1735.28 0.0218207Z" fill="white"></path>
<path d="M833.435 0.147412C834.661 0.144188 835.887 0.140964 837.15 0.137641C838.503 0.139112 839.855 0.14068 841.208 0.142334C842.651 0.140465 844.094 0.138164 845.537 0.135469C849.499 0.129354 853.46 0.129484 857.422 0.130663C861.696 0.130867 865.97 0.125348 870.244 0.120606C878.616 0.112301 886.988 0.109551 895.36 0.108993C902.165 0.108518 908.969 0.106463 915.774 0.103293C935.066 0.0944868 954.358 0.0898732 973.651 0.0906231C975.211 0.0906831 975.211 0.0906831 976.802 0.0907442C978.364 0.0908055 978.364 0.0908055 979.957 0.0908681C996.836 0.0912746 1013.71 0.0817029 1030.59 0.0676058C1047.92 0.0532456 1065.25 0.0463354 1082.58 0.0471996C1092.31 0.0475317 1102.04 0.0447801 1111.77 0.0340216C1120.05 0.0249213 1128.34 0.0227375 1136.62 0.029531C1140.85 0.0327984 1145.07 0.0328447 1149.3 0.0241777C1153.17 0.0163219 1157.04 0.0177348 1160.91 0.0264619C1162.31 0.0279989 1163.71 0.0261731 1165.1 0.0206018C1176.4 -0.0214099 1184.61 0.512996 1193.25 8.27605C1198.4 13.8337 1199.55 18.7036 1199.54 26.1489C1199.55 26.9269 1199.56 27.7049 1199.56 28.5065C1199.58 31.0743 1199.59 33.6418 1199.59 36.2096C1199.6 38.0074 1199.6 39.8052 1199.61 41.603C1199.62 45.3748 1199.62 49.1465 1199.62 52.9184C1199.62 57.7161 1199.65 62.5133 1199.68 67.3109C1199.71 71.0284 1199.71 74.7459 1199.71 78.4635C1199.71 80.2299 1199.72 81.9963 1199.74 83.7626C1199.85 97.3854 1198.69 109.794 1191.25 121.651C1190.87 122.258 1190.5 122.864 1190.1 123.489C1185.27 131.069 1179.77 138.188 1174.25 145.276C1173.63 146.083 1173 146.89 1172.35 147.721C1171.28 149.097 1170.21 150.47 1169.13 151.842C1166.61 155.105 1164.15 158.41 1161.69 161.714C1157.25 167.671 1152.71 173.552 1148.13 179.401C1143.5 185.309 1139.04 191.297 1134.73 197.441C1131.54 201.957 1128.08 206.187 1124.54 210.428C1121.49 214.226 1118.71 218.186 1115.9 222.166C1113.53 225.521 1111.1 228.781 1108.5 231.964C1104.71 236.616 1101.17 241.432 1097.63 246.276C1092.26 253.614 1086.76 260.832 1081.16 267.992C1076.44 274.026 1071.83 280.13 1067.25 286.276C1065.28 288.924 1063.3 291.569 1061.32 294.214C1060.81 294.891 1060.3 295.569 1059.78 296.267C1055.76 301.616 1051.7 306.924 1047.6 312.214C1043.64 317.371 1039.77 322.588 1035.88 327.799C1029.02 336.98 1022.09 346.091 1015.03 355.115C1011.38 359.797 1007.84 364.54 1004.38 369.37C1001.55 373.243 998.616 377.036 995.69 380.839C983.793 394.526 983.793 394.526 979.253 411.214C980.01 416.406 981.62 420.439 985.253 424.276C991.587 428.743 997.111 430.426 1004.81 430.407C1005.59 430.409 1006.36 430.412 1007.16 430.414C1009.78 430.42 1012.39 430.419 1015 430.418C1016.87 430.421 1018.74 430.424 1020.61 430.428C1024.64 430.436 1028.67 430.441 1032.7 430.445C1039.07 430.451 1045.45 430.467 1051.82 430.486C1054 430.492 1056.19 430.499 1058.37 430.505C1059.46 430.508 1060.55 430.511 1061.68 430.515C1076.52 430.557 1091.37 430.59 1106.21 430.602C1116.22 430.61 1126.23 430.633 1136.24 430.671C1141.53 430.691 1146.83 430.703 1152.13 430.698C1157.11 430.694 1162.1 430.708 1167.08 430.736C1168.91 430.742 1170.73 430.743 1172.56 430.735C1175.06 430.726 1177.56 430.742 1180.06 430.764C1180.78 430.755 1181.5 430.747 1182.23 430.738C1188.49 430.838 1193.58 432.969 1198.28 437.022C1198.72 437.58 1199.17 438.138 1199.63 438.714C1200.09 439.269 1200.55 439.825 1201.03 440.397C1204.25 445.333 1204.55 449.934 1204.54 455.703C1204.55 456.539 1204.56 457.376 1204.56 458.238C1204.58 460.997 1204.59 463.755 1204.59 466.514C1204.6 468.439 1204.6 470.363 1204.61 472.287C1204.62 476.319 1204.62 480.352 1204.62 484.384C1204.62 489.539 1204.65 494.693 1204.68 499.848C1204.71 503.823 1204.71 507.797 1204.71 511.772C1204.71 513.672 1204.72 515.571 1204.74 517.471C1204.76 520.135 1204.75 522.797 1204.74 525.461C1204.75 526.238 1204.76 527.015 1204.77 527.815C1204.7 534.248 1202.73 539.405 1198.51 544.299C1197.67 544.969 1197.67 544.969 1196.82 545.651C1196.26 546.113 1195.7 546.574 1195.13 547.049C1190.77 549.898 1187 550.527 1181.83 550.533C1180.53 550.54 1179.23 550.546 1177.88 550.553C1176.44 550.55 1174.99 550.547 1173.54 550.543C1172.01 550.547 1170.47 550.552 1168.93 550.557C1164.71 550.569 1160.48 550.569 1156.26 550.567C1151.7 550.566 1147.14 550.577 1142.58 550.587C1133.66 550.604 1124.73 550.609 1115.8 550.61C1108.54 550.611 1101.28 550.615 1094.03 550.622C1073.46 550.639 1052.88 550.648 1032.31 550.647C1030.65 550.647 1030.65 550.647 1028.95 550.647C1027.84 550.647 1026.73 550.646 1025.59 550.646C1007.59 550.646 989.586 550.665 971.586 550.693C953.108 550.722 934.63 550.735 916.151 550.734C905.775 550.733 895.4 550.739 885.024 550.76C876.19 550.778 867.356 550.783 858.522 550.769C854.014 550.763 849.507 550.762 845 550.78C840.873 550.795 836.746 550.793 832.618 550.775C831.126 550.772 829.634 550.776 828.143 550.787C818.852 550.852 812.357 550.509 805.011 544.417C804.202 543.481 804.202 543.481 803.378 542.526C802.823 541.912 802.269 541.299 801.698 540.667C798.36 535.146 798.001 528.925 797.978 522.613C797.97 521.534 797.97 521.534 797.963 520.432C797.949 518.075 797.95 515.719 797.952 513.362C797.948 511.703 797.944 510.044 797.939 508.385C797.931 504.914 797.932 501.442 797.937 497.971C797.943 493.56 797.926 489.15 797.903 484.739C797.888 481.312 797.887 477.885 797.89 474.459C797.89 472.835 797.885 471.211 797.874 469.587C797.754 447.736 803.173 431.837 817.194 415.014C820.151 411.454 822.851 407.754 825.503 403.964C828.863 399.179 832.363 394.566 836.057 390.034C838.867 386.505 841.558 382.893 844.253 379.276C848.191 373.991 852.203 368.79 856.35 363.667C858.413 361.074 860.399 358.434 862.378 355.776C866.222 350.613 870.161 345.533 874.128 340.464C878.961 334.281 883.673 328.029 888.282 321.677C891.764 316.896 895.387 312.242 899.063 307.608C902.488 303.278 905.825 298.888 909.128 294.464C919.527 280.531 930.153 266.769 940.776 253.007C945.489 246.897 950.153 240.754 954.772 234.573C958.294 229.878 961.873 225.227 965.444 220.57C968.679 216.346 971.886 212.104 975.065 207.839C977.645 204.382 980.275 200.991 983.003 197.651C987.57 192.03 991.717 186.105 995.861 180.168C996.4 179.407 996.939 178.646 997.495 177.862C997.978 177.172 998.461 176.481 998.959 175.77C999.6 175.03 999.6 175.03 1000.25 174.276C1000.91 174.276 1001.57 174.276 1002.25 174.276C1002.46 173.602 1002.67 172.928 1002.88 172.233C1005.05 167.563 1008.48 163.95 1011.82 160.067C1016.69 154.212 1019.92 148.119 1019.53 140.28C1018.55 133.09 1015.74 129.235 1010.19 124.624C1006.29 121.909 1002.74 122.145 998.119 122.131C997.022 122.126 997.022 122.126 995.903 122.121C993.446 122.11 990.989 122.106 988.532 122.102C986.772 122.096 985.013 122.089 983.254 122.082C979.461 122.068 975.668 122.056 971.875 122.046C965.874 122.031 959.873 122.007 953.872 121.981C936.805 121.91 919.738 121.85 902.671 121.799C893.249 121.771 883.826 121.736 874.403 121.693C868.442 121.666 862.481 121.648 856.52 121.637C852.803 121.627 849.085 121.61 845.368 121.59C843.65 121.583 841.931 121.579 840.213 121.578C817.677 121.568 817.677 121.568 810.69 114.921C805.382 108.847 805.103 102.001 805.092 94.308C805.087 93.5204 805.082 92.7327 805.077 91.9211C805.062 89.3246 805.055 86.7281 805.05 84.1315C805.044 82.3194 805.038 80.5072 805.032 78.6951C805.022 74.8981 805.016 71.1011 805.012 67.3041C805.007 62.4521 804.983 57.6004 804.954 52.7485C804.936 49.0054 804.931 45.2624 804.929 41.5193C804.926 39.7312 804.918 37.9432 804.905 36.1551C804.888 33.6473 804.89 31.1401 804.896 28.6322C804.887 27.9021 804.878 27.172 804.868 26.4197C804.93 18.7702 807.368 12.4664 812.581 6.81511C818.707 1.17523 825.329 0.152817 833.435 0.147412Z" fill="white"></path>
<path d="M274.14 0.152722C274.896 0.151568 275.651 0.150414 276.429 0.149225C278.951 0.146587 281.473 0.151058 283.995 0.155515C285.825 0.155079 287.655 0.154203 289.485 0.152926C294.506 0.150692 299.528 0.154688 304.549 0.159704C309.967 0.164024 315.385 0.162561 320.803 0.161802C330.187 0.161278 339.571 0.164414 348.955 0.17004C362.523 0.178168 376.091 0.180771 389.659 0.182028C411.672 0.184216 433.686 0.190871 455.699 0.20033C477.082 0.20951 498.466 0.216588 519.849 0.220838C521.168 0.221101 522.486 0.221364 523.844 0.221634C530.457 0.222939 537.069 0.224203 543.682 0.225446C598.539 0.235812 653.396 0.253425 708.253 0.27577C708.253 0.60577 708.253 0.93577 708.253 1.27577C627.073 1.27577 545.893 1.27577 462.253 1.27577C462.253 102.256 462.253 203.236 462.253 307.276C354.326 307.477 354.326 307.477 309.276 307.52C298.965 307.53 288.653 307.54 278.342 307.55C277.049 307.552 275.757 307.553 274.425 307.554C253.563 307.576 232.701 307.616 211.839 307.662C190.427 307.708 169.016 307.736 147.604 307.746C134.393 307.753 121.182 307.775 107.971 307.815C98.9101 307.842 89.8498 307.85 80.7894 307.843C75.5626 307.84 70.3361 307.845 65.1094 307.872C60.3197 307.896 55.5306 307.897 50.7408 307.88C49.0125 307.878 47.2841 307.884 45.5558 307.9C31.5705 308.02 20.7237 305.706 10.3777 295.659C3.03042 287.42 -0.382741 276.669 0.033992 265.678C2.07775 243.233 23.2309 228.142 38.1661 213.202C40.8659 210.501 43.5628 207.796 46.2602 205.092C52.1373 199.202 58.0182 193.315 63.9 187.428C67.5773 183.748 71.2539 180.067 74.9304 176.386C85.127 166.178 95.3245 155.97 105.526 145.765C106.176 145.115 106.827 144.464 107.497 143.793C108.149 143.141 108.801 142.488 109.473 141.816C110.794 140.495 112.116 139.173 113.437 137.851C114.092 137.196 114.747 136.54 115.423 135.865C126.059 125.225 136.688 114.578 147.315 103.928C158.247 92.9724 169.185 82.0222 180.128 71.0776C186.264 64.941 192.397 58.8021 198.524 52.6569C203.735 47.4299 208.952 42.2081 214.176 36.9929C216.838 34.3347 219.497 31.6741 222.151 29.0068C225.031 26.1112 227.923 23.2274 230.816 20.3445C231.647 19.5064 232.477 18.6683 233.332 17.8047C245.419 5.81886 257.061 0.0875191 274.14 0.152722Z" fill="#4EAD4D"></path>
<path d="M462.253 1.27584C504.245 1.19334 546.238 1.11084 589.503 1.02584C602.758 0.989424 616.014 0.953008 629.672 0.915488C645.867 0.897422 645.867 0.897422 653.451 0.894065C658.744 0.89034 664.037 0.875693 669.33 0.853537C676.087 0.825295 682.843 0.817885 689.601 0.823551C692.077 0.822366 694.553 0.814466 697.029 0.798979C720.633 0.658247 720.633 0.658247 730.253 5.27584C731.439 5.78244 732.625 6.28904 733.846 6.811C747.314 13.8888 757.254 23.1392 763.253 37.2758C763.666 38.2008 764.078 39.1257 764.504 40.0786C769.311 52.3478 768.923 64.3633 768.82 77.3869C768.819 79.9419 768.819 82.4969 768.822 85.0518C768.823 91.1694 768.802 97.2864 768.77 103.404C768.733 110.491 768.73 117.579 768.726 124.667C768.7 143.349 768.63 162.031 768.565 180.713C768.462 222.479 768.359 264.245 768.253 307.276C667.273 307.276 566.293 307.276 462.253 307.276C462.253 206.296 462.253 105.316 462.253 1.27584Z" fill="#00790E"></path>
<path d="M808.71 607.869C809.82 607.852 809.82 607.852 810.952 607.835C812.52 607.816 814.088 607.803 815.655 607.795C818.047 607.776 820.434 607.714 822.825 607.651C824.349 607.637 825.873 607.627 827.397 607.619C828.465 607.582 828.465 607.582 829.554 607.544C833.657 607.581 835.073 608.1 838.049 611.001C839.897 613.747 841.711 616.461 843.374 619.322C843.917 620.251 844.46 621.179 845.02 622.135C845.571 623.089 846.122 624.043 846.69 625.026C847.793 626.916 848.896 628.807 849.999 630.697C850.543 631.634 851.088 632.57 851.649 633.534C853.63 636.921 855.646 640.285 857.67 643.646C859.446 646.597 861.213 649.553 862.979 652.51C864.279 654.682 865.578 656.854 866.878 659.026C867.86 660.671 867.86 660.671 868.862 662.35C871.887 667.402 874.912 672.425 878.253 677.276C878.737 676.488 879.222 675.7 879.721 674.889C880.392 673.8 881.062 672.71 881.753 671.588C882.119 670.993 882.485 670.398 882.862 669.784C884.583 666.986 886.306 664.189 888.038 661.397C892.655 653.938 897.178 646.424 901.69 638.901C902.342 637.814 902.994 636.727 903.666 635.608C906.495 630.89 909.32 626.17 912.116 621.432C912.527 620.737 912.939 620.043 913.362 619.328C914.418 617.544 915.468 615.758 916.518 613.971C919.232 609.753 919.232 609.753 921.253 608.276C923.805 607.977 926.108 607.855 928.659 607.877C929.38 607.874 930.101 607.871 930.844 607.868C932.367 607.866 933.89 607.872 935.413 607.884C937.745 607.9 940.074 607.885 942.405 607.865C943.886 607.867 945.366 607.871 946.846 607.877C947.892 607.868 947.892 607.868 948.958 607.859C953.738 607.928 953.738 607.928 955.937 609.413C957.846 612.115 957.627 614.173 957.627 617.463C957.634 618.758 957.641 620.054 957.648 621.388C957.641 622.827 957.633 624.266 957.625 625.705C957.627 627.218 957.631 628.731 957.636 630.244C957.646 634.355 957.636 638.466 957.623 642.578C957.611 646.877 957.616 651.175 957.618 655.474C957.618 662.694 957.607 669.913 957.589 677.133C957.568 685.485 957.564 693.837 957.57 702.188C957.576 710.216 957.571 718.244 957.559 726.272C957.555 729.691 957.554 733.11 957.556 736.53C957.558 740.555 957.55 744.58 957.534 748.605C957.53 750.084 957.529 751.563 957.532 753.042C957.535 755.058 957.524 757.073 957.513 759.089C957.51 760.782 957.51 760.782 957.507 762.51C957.253 765.276 957.253 765.276 955.253 768.276C950.268 769.937 945.076 769.501 939.856 769.516C937.826 769.525 935.796 769.557 933.766 769.588C932.484 769.593 931.202 769.598 929.882 769.604C928.707 769.613 927.532 769.622 926.321 769.632C922.769 769.219 921.657 768.905 919.253 766.276C918.842 763.289 918.689 760.664 918.707 757.673C918.696 756.795 918.686 755.917 918.675 755.012C918.646 752.106 918.645 749.201 918.643 746.295C918.628 744.281 918.612 742.268 918.593 740.254C918.549 734.953 918.53 729.651 918.514 724.349C918.495 718.94 918.453 713.53 918.413 708.121C918.337 697.506 918.287 686.891 918.253 676.276C917.309 677.681 916.367 679.087 915.425 680.493C914.637 681.668 914.637 681.668 913.834 682.866C911.331 686.68 909.013 690.6 906.69 694.526C902.272 701.939 897.795 709.313 893.253 716.651C892.443 717.96 892.443 717.96 891.618 719.296C884.08 731.448 884.08 731.448 881.253 734.276C878.503 734.838 878.503 734.838 875.253 734.276C870.065 729.771 866.876 723.462 863.628 717.526C859.129 709.472 854.421 701.607 849.438 693.845C846.925 689.93 844.466 685.993 842.078 682.001C841.547 681.112 841.015 680.224 840.467 679.309C840.066 678.638 839.666 677.967 839.253 677.276C839.247 678.342 839.241 679.408 839.235 680.507C839.178 690.556 839.105 700.606 839.017 710.655C838.972 715.822 838.933 720.988 838.906 726.155C838.88 731.141 838.84 736.127 838.79 741.113C838.773 743.016 838.761 744.918 838.755 746.82C838.745 749.485 838.717 752.149 838.685 754.813C838.687 755.6 838.688 756.386 838.689 757.196C838.612 761.714 838.071 764.689 835.253 768.276C831.056 770.374 825.602 769.502 820.986 769.516C818.958 769.525 816.931 769.556 814.903 769.588C813.62 769.593 812.337 769.598 811.014 769.604C809.838 769.613 808.662 769.622 807.451 769.632C803.802 769.225 802.113 768.562 799.253 766.276C798.632 763.476 798.632 763.476 798.638 760.006C798.628 758.692 798.618 757.378 798.608 756.025C798.623 754.565 798.638 753.106 798.653 751.646C798.651 750.112 798.647 748.578 798.641 747.044C798.631 742.874 798.653 738.706 798.68 734.536C798.704 730.178 798.701 725.82 798.701 721.462C798.706 714.144 798.729 706.827 798.766 699.509C798.807 691.04 798.825 682.571 798.828 674.102C798.832 665.097 798.851 656.091 798.875 647.086C798.882 644.486 798.885 641.886 798.888 639.286C798.894 635.206 798.911 631.126 798.935 627.045C798.942 625.545 798.947 624.045 798.947 622.544C798.948 620.502 798.963 618.46 798.979 616.418C798.983 615.274 798.988 614.129 798.993 612.95C799.562 607.094 803.955 607.926 808.71 607.869Z" fill="white"></path>
<path d="M1463.81 607.71C1464.55 607.703 1465.28 607.697 1466.05 607.691C1467.61 607.684 1469.17 607.687 1470.73 607.7C1473.11 607.713 1475.49 607.679 1477.87 607.641C1479.39 607.64 1480.91 607.642 1482.43 607.647C1483.5 607.627 1483.5 607.627 1484.58 607.607C1488.41 607.678 1490.09 608.143 1493.09 610.585C1494.78 612.68 1496.29 614.629 1497.61 616.956C1498 617.629 1498.39 618.302 1498.79 618.996C1499.39 620.063 1499.39 620.063 1500 621.151C1500.88 622.684 1501.77 624.216 1502.65 625.749C1503.09 626.513 1503.53 627.278 1503.98 628.066C1505.82 631.264 1507.72 634.428 1509.63 637.589C1510.37 638.816 1511.1 640.044 1511.84 641.272C1512.65 642.607 1513.45 643.941 1514.25 645.276C1516.23 648.567 1518.21 651.859 1520.19 655.151C1520.7 656 1521.21 656.849 1521.74 657.724C1525.34 663.737 1528.92 669.771 1532.43 675.842C1535.33 680.812 1538.37 685.687 1541.42 690.562C1541.89 691.305 1542.35 692.047 1542.83 692.812C1543.97 694.634 1545.11 696.455 1546.25 698.276C1546.26 697.193 1546.27 696.109 1546.28 694.993C1546.35 684.796 1546.44 674.599 1546.54 664.401C1546.59 659.158 1546.64 653.916 1546.67 648.673C1546.71 643.615 1546.76 638.558 1546.81 633.5C1546.83 631.569 1546.84 629.637 1546.86 627.705C1546.87 625.004 1546.9 622.304 1546.93 619.603C1546.94 618.8 1546.94 617.997 1546.94 617.17C1547 613.351 1547.08 611.529 1549.25 608.276C1551.84 607.947 1554.19 607.808 1556.78 607.807C1557.52 607.8 1558.27 607.792 1559.04 607.784C1560.61 607.773 1562.19 607.771 1563.77 607.775C1566.18 607.776 1568.59 607.734 1571 607.69C1572.53 607.685 1574.06 607.682 1575.59 607.682C1576.31 607.666 1577.04 607.649 1577.78 607.633C1579.82 607.661 1579.82 607.661 1583.25 608.276C1586.18 611.996 1586.63 614.878 1586.63 619.538C1586.64 620.8 1586.65 622.062 1586.66 623.362C1586.65 624.752 1586.65 626.143 1586.64 627.534C1586.65 629.004 1586.65 630.475 1586.66 631.945C1586.67 635.933 1586.67 639.92 1586.66 643.908C1586.65 648.083 1586.66 652.258 1586.66 656.433C1586.67 663.444 1586.66 670.455 1586.64 677.465C1586.63 685.569 1586.63 693.672 1586.65 701.775C1586.66 708.734 1586.66 715.694 1586.66 722.654C1586.65 726.81 1586.65 730.965 1586.66 735.121C1586.67 739.028 1586.66 742.935 1586.65 746.842C1586.64 748.275 1586.64 749.708 1586.65 751.141C1586.66 753.099 1586.65 755.056 1586.63 757.014C1586.63 758.109 1586.63 759.204 1586.63 760.332C1586.2 763.683 1585.25 765.572 1583.25 768.276C1578.98 770.41 1573.3 769.462 1568.56 769.461C1566.46 769.463 1564.36 769.482 1562.26 769.501C1560.92 769.504 1559.58 769.506 1558.23 769.506C1556.41 769.513 1556.41 769.513 1554.54 769.519C1550.59 769.227 1547.58 768.74 1544.85 765.723C1544.49 765.12 1544.12 764.518 1543.75 763.897C1543.34 763.228 1542.93 762.559 1542.51 761.87C1542.1 761.158 1541.68 760.447 1541.25 759.714C1540.81 758.983 1540.37 758.253 1539.92 757.501C1537.38 753.27 1534.92 748.995 1532.58 744.655C1529.3 738.769 1525.73 733.042 1522.25 727.276C1516.44 717.633 1510.68 707.96 1504.94 698.276C1504.59 697.685 1504.24 697.095 1503.88 696.486C1502.86 694.771 1501.84 693.055 1500.83 691.339C1500.23 690.339 1499.64 689.34 1499.03 688.311C1497.08 684.981 1495.17 681.63 1493.25 678.276C1493.25 679.33 1493.24 680.384 1493.24 681.469C1493.18 691.401 1493.11 701.333 1493.02 711.265C1492.97 716.371 1492.93 721.477 1492.91 726.583C1492.88 731.511 1492.84 736.438 1492.79 741.366C1492.77 743.246 1492.76 745.126 1492.76 747.006C1492.75 749.639 1492.72 752.272 1492.69 754.906C1492.69 755.682 1492.69 756.459 1492.69 757.26C1492.61 761.757 1492.05 764.705 1489.25 768.276C1485.05 770.378 1479.56 769.462 1474.93 769.461C1472.89 769.464 1470.85 769.482 1468.82 769.501C1467.53 769.503 1466.24 769.504 1464.92 769.506C1463.14 769.513 1463.14 769.513 1461.34 769.519C1458.36 769.284 1456.67 769.001 1454.25 767.276C1453.16 764.008 1453.12 761.612 1453.11 758.172C1453.11 756.894 1453.1 755.617 1453.1 754.301C1453.09 752.883 1453.09 751.464 1453.09 750.046C1453.09 748.554 1453.08 747.063 1453.08 745.571C1453.06 741.518 1453.06 737.464 1453.05 733.41C1453.05 730.879 1453.05 728.347 1453.04 725.815C1453.03 717.897 1453.02 709.979 1453.01 702.061C1453.01 692.915 1452.99 683.769 1452.96 674.624C1452.94 667.557 1452.93 660.49 1452.93 653.423C1452.93 649.201 1452.92 644.979 1452.91 640.757C1452.89 636.787 1452.89 632.817 1452.9 628.847C1452.9 627.389 1452.89 625.931 1452.88 624.474C1452.87 622.485 1452.88 620.496 1452.89 618.507C1452.88 617.394 1452.88 616.281 1452.88 615.134C1453.78 608.215 1457.6 607.666 1463.81 607.71Z" fill="white"></path>
<path d="M1153.18 607.872C1153.88 607.865 1154.58 607.858 1155.3 607.851C1157.63 607.833 1159.96 607.837 1162.28 607.843C1163.92 607.838 1165.55 607.833 1167.18 607.827C1170.61 607.818 1174.05 607.82 1177.48 607.83C1180.97 607.839 1184.45 607.833 1187.94 607.81C1241.8 607.456 1241.8 607.456 1259.25 623.464C1265.88 630.712 1269.89 639.583 1271.25 649.276C1271.36 649.992 1271.47 650.707 1271.58 651.444C1273.6 666.625 1272.4 682.776 1263.57 695.749C1256.92 703.806 1248.39 709.758 1238.25 712.276C1240.74 716.073 1243.25 719.863 1245.75 723.651C1246.45 724.712 1247.14 725.773 1247.86 726.866C1251.82 732.844 1255.95 738.538 1260.49 744.088C1262.73 746.866 1264.68 749.727 1266.63 752.714C1267.6 754.197 1267.6 754.197 1268.59 755.71C1269.14 756.557 1269.69 757.404 1270.25 758.276C1270.91 759.266 1271.57 760.256 1272.25 761.276C1272.63 763.776 1272.63 763.776 1272.25 766.276C1269.9 768.68 1268.49 769.248 1265.12 769.648C1263.32 769.644 1263.32 769.644 1261.48 769.639C1259.5 769.638 1259.5 769.638 1257.48 769.638C1256.8 769.629 1256.11 769.621 1255.41 769.612C1253.33 769.589 1251.24 769.592 1249.16 769.598C1235.78 769.527 1235.78 769.527 1231.66 765.857C1227.92 761.268 1224.6 756.491 1221.38 751.526C1217.42 745.503 1213.36 739.61 1209.07 733.819C1206.42 730.112 1204.01 726.264 1201.6 722.393C1200.42 720.373 1200.42 720.373 1199.25 719.276C1196.56 719.039 1193.89 718.854 1191.19 718.714C1190.43 718.671 1189.67 718.627 1188.89 718.583C1187.01 718.476 1185.13 718.376 1183.25 718.276C1183.26 718.829 1183.27 719.382 1183.27 719.951C1183.34 725.71 1183.38 731.468 1183.42 737.228C1183.43 739.376 1183.45 741.525 1183.48 743.673C1183.52 746.763 1183.53 749.853 1183.55 752.944C1183.56 753.903 1183.58 754.861 1183.59 755.849C1183.59 760.783 1183.57 764.318 1180.25 768.276C1175.98 770.414 1170.31 769.503 1165.56 769.516C1163.46 769.526 1161.36 769.557 1159.26 769.589C1157.92 769.595 1156.57 769.6 1155.23 769.604C1154.02 769.614 1152.8 769.623 1151.54 769.633C1147.84 769.231 1146.15 768.595 1143.25 766.276C1142.63 763.495 1142.63 763.495 1142.63 760.051C1142.62 758.747 1142.61 757.443 1142.6 756.1C1142.61 754.651 1142.62 753.203 1142.64 751.755C1142.63 750.232 1142.63 748.709 1142.62 747.187C1142.61 743.048 1142.62 738.91 1142.65 734.772C1142.67 730.445 1142.66 726.118 1142.66 721.791C1142.66 714.525 1142.68 707.258 1142.71 699.992C1142.75 691.585 1142.76 683.179 1142.75 674.772C1142.74 666.692 1142.75 658.612 1142.77 650.532C1142.78 647.09 1142.78 643.649 1142.78 640.207C1142.78 636.156 1142.8 632.104 1142.82 628.053C1142.83 626.564 1142.83 625.075 1142.83 623.587C1142.82 621.558 1142.84 619.53 1142.86 617.501C1142.86 616.365 1142.87 615.228 1142.87 614.058C1143.25 611.276 1143.25 611.276 1144.58 609.411C1147.32 607.551 1149.92 607.886 1153.18 607.872ZM1183.25 641.276C1183.25 655.796 1183.25 670.316 1183.25 685.276C1188 685.338 1192.74 685.4 1197.63 685.464C1199.1 685.491 1200.58 685.518 1202.1 685.546C1210.82 685.601 1219.11 685.541 1226.19 679.964C1231.1 673.571 1232.7 667.649 1232.04 659.686C1231.13 653.959 1229.7 650.247 1225.25 646.276C1215.85 640.787 1206.41 641.139 1195.82 641.214C1191.67 641.234 1187.52 641.255 1183.25 641.276Z" fill="white"></path>
<path d="M2037.32 617.776C2040.76 620.664 2043.49 623.744 2046.25 627.276C2047.06 627.977 2047.86 628.678 2048.69 629.401C2064.34 646.963 2065.3 676.32 2064.13 698.556C2062.72 720.056 2057.78 738.644 2042.25 754.276C2041.66 754.914 2041.07 755.552 2040.46 756.209C2027.76 768.801 2006.49 772.282 1989.41 772.342C1969.99 771.749 1952.26 765.837 1938.17 752.272C1919.52 732.16 1918.22 703.504 1919.08 677.556C1920.11 657.613 1925.51 636.171 1940.55 622.127C1965.35 600.526 2010.54 597.805 2037.32 617.776ZM1968.07 650.713C1957.61 665.509 1957.22 688.024 1959.94 705.338C1962.22 715.276 1965.68 727.06 1974.68 732.834C1985.37 738.431 1993.88 737.959 2005.2 734.541C2011.71 731.84 2015.26 727.456 2018.25 721.276C2025.32 702.332 2026.63 677.354 2019.08 658.323C2015.39 650.523 2011.11 645.072 2003.25 641.276C1989.54 636.774 1977.44 639.731 1968.07 650.713Z" fill="white"></path>
<path d="M1624.88 607.878C1625.99 607.873 1625.99 607.873 1627.13 607.869C1628.7 607.867 1630.27 607.872 1631.84 607.885C1634.24 607.901 1636.65 607.885 1639.05 607.866C1640.58 607.868 1642.1 607.872 1643.63 607.878C1644.35 607.872 1645.07 607.865 1645.81 607.859C1650.75 607.929 1650.75 607.929 1652.94 609.446C1654.78 612.009 1654.61 613.807 1654.59 616.941C1654.59 618.682 1654.59 618.682 1654.59 620.459C1654.58 621.712 1654.56 622.965 1654.55 624.257C1654.54 625.54 1654.54 626.823 1654.53 628.145C1654.52 631.553 1654.49 634.961 1654.46 638.369C1654.43 641.847 1654.41 645.326 1654.4 648.805C1654.37 655.629 1654.31 662.452 1654.25 669.276C1671.08 669.276 1687.91 669.276 1705.25 669.276C1705.22 665.292 1705.18 661.307 1705.15 657.202C1705.12 653.343 1705.11 649.484 1705.09 645.625C1705.07 642.943 1705.05 640.261 1705.03 637.579C1704.99 633.724 1704.97 629.869 1704.96 626.014C1704.94 624.216 1704.94 624.216 1704.91 622.381C1704.91 621.26 1704.91 620.139 1704.91 618.984C1704.9 617.509 1704.9 617.509 1704.89 616.003C1705.32 612.74 1706.24 610.87 1708.25 608.276C1711 607.781 1713.13 607.62 1715.88 607.682C1716.62 607.682 1717.36 607.682 1718.13 607.682C1719.7 607.688 1721.27 607.705 1722.84 607.734C1725.24 607.776 1727.65 607.775 1730.05 607.768C1731.58 607.779 1733.1 607.792 1734.63 607.807C1735.71 607.808 1735.71 607.808 1736.81 607.808C1741.73 607.925 1741.73 607.925 1743.94 609.416C1745.84 612.117 1745.63 614.178 1745.63 617.463C1745.63 618.759 1745.64 620.054 1745.65 621.389C1745.64 622.828 1745.63 624.267 1745.62 625.706C1745.63 627.219 1745.63 628.731 1745.64 630.244C1745.65 634.356 1745.64 638.467 1745.62 642.579C1745.61 646.877 1745.62 651.176 1745.62 655.475C1745.62 662.694 1745.61 669.914 1745.59 677.133C1745.57 685.485 1745.56 693.837 1745.57 702.189C1745.58 710.217 1745.57 718.244 1745.56 726.272C1745.55 729.692 1745.55 733.111 1745.56 736.53C1745.56 740.556 1745.55 744.581 1745.53 748.606C1745.53 750.085 1745.53 751.564 1745.53 753.043C1745.53 755.058 1745.52 757.074 1745.51 759.089C1745.51 760.783 1745.51 760.783 1745.51 762.51C1745.25 765.276 1745.25 765.276 1743.25 768.276C1738.17 769.972 1732.75 769.501 1727.43 769.516C1725.33 769.526 1723.22 769.557 1721.12 769.589C1719.78 769.595 1718.44 769.6 1717.1 769.604C1715.88 769.614 1714.67 769.623 1713.41 769.632C1710 769.247 1708.64 768.707 1706.25 766.276C1705.19 763.098 1705.13 760.858 1705.14 757.519C1705.14 755.748 1705.14 755.748 1705.14 753.941C1705.14 752.666 1705.15 751.391 1705.15 750.077C1705.16 748.772 1705.16 747.466 1705.16 746.121C1705.16 742.654 1705.17 739.187 1705.18 735.72C1705.19 732.181 1705.2 728.641 1705.2 725.102C1705.21 718.16 1705.23 711.218 1705.25 704.276C1688.42 704.276 1671.59 704.276 1654.25 704.276C1654.28 708.645 1654.3 713.013 1654.32 717.514C1654.34 720.996 1654.35 724.478 1654.36 727.959C1654.37 731.635 1654.38 735.312 1654.4 738.988C1654.43 742.528 1654.44 746.068 1654.44 749.608C1654.45 751.617 1654.46 753.627 1654.48 755.636C1654.48 757.467 1654.48 757.467 1654.48 759.336C1654.48 760.413 1654.49 761.49 1654.49 762.599C1654.25 765.276 1654.25 765.276 1652.25 768.276C1647.18 769.967 1641.79 769.501 1636.48 769.516C1634.39 769.526 1632.3 769.557 1630.21 769.589C1628.87 769.595 1627.54 769.6 1626.2 769.604C1624.38 769.618 1624.38 769.618 1622.53 769.632C1618.83 769.23 1617.14 768.589 1614.25 766.276C1613.63 763.495 1613.63 763.495 1613.63 760.051C1613.62 758.747 1613.61 757.443 1613.6 756.1C1613.61 754.651 1613.62 753.203 1613.64 751.755C1613.63 750.232 1613.63 748.709 1613.62 747.187C1613.61 743.048 1613.62 738.91 1613.65 734.772C1613.67 730.445 1613.66 726.118 1613.66 721.791C1613.66 714.525 1613.68 707.258 1613.71 699.991C1613.75 691.585 1613.76 683.179 1613.75 674.772C1613.74 666.692 1613.75 658.612 1613.77 650.532C1613.78 647.09 1613.78 643.649 1613.78 640.207C1613.78 636.155 1613.8 632.104 1613.82 628.053C1613.83 626.564 1613.83 625.075 1613.83 623.586C1613.82 621.558 1613.84 619.529 1613.86 617.501C1613.86 616.365 1613.87 615.228 1613.87 614.058C1614.25 611.276 1614.25 611.276 1615.56 609.411C1618.4 607.505 1621.58 607.85 1624.88 607.878Z" fill="white"></path>
<path d="M1827.06 608.038C1827.93 608.03 1828.81 608.022 1829.71 608.013C1831.56 608 1833.42 607.989 1835.27 607.981C1838.11 607.964 1840.94 607.92 1843.78 607.876C1845.58 607.866 1847.38 607.857 1849.18 607.85C1850.45 607.824 1850.45 607.824 1851.75 607.797C1855.3 607.81 1857.56 607.847 1860.61 609.74C1862.97 613.383 1864.24 617.171 1865.57 621.284C1865.86 622.165 1866.16 623.045 1866.46 623.953C1867.4 626.765 1868.33 629.583 1869.25 632.401C1870.18 635.197 1871.11 637.992 1872.04 640.785C1872.62 642.52 1873.2 644.257 1873.77 645.995C1875.43 651.016 1877.29 655.916 1879.28 660.815C1880.82 664.706 1882.16 668.659 1883.49 672.624C1883.79 673.479 1884.08 674.335 1884.38 675.216C1885.3 677.923 1886.21 680.631 1887.13 683.339C1888.33 686.893 1889.54 690.446 1890.74 693.999C1891.04 694.874 1891.34 695.75 1891.65 696.652C1894.2 704.154 1896.83 711.628 1899.48 719.096C1901.76 725.527 1904.02 731.964 1906.26 738.41C1906.85 740.09 1907.43 741.769 1908.03 743.447C1908.9 745.92 1909.76 748.398 1910.62 750.878C1910.89 751.62 1911.15 752.361 1911.42 753.125C1912.97 757.642 1913.61 761.439 1913.25 766.276C1912.92 766.936 1912.59 767.596 1912.25 768.276C1907.06 770.007 1901.49 769.502 1896.06 769.516C1893.89 769.526 1891.73 769.557 1889.57 769.589C1888.18 769.595 1886.8 769.6 1885.42 769.604C1884.16 769.614 1882.91 769.623 1881.62 769.633C1877.97 769.246 1876.12 768.533 1873.25 766.276C1871.99 763.688 1871.02 761.358 1870.13 758.651C1869.88 757.934 1869.62 757.217 1869.37 756.479C1868.65 754.416 1867.95 752.347 1867.25 750.276C1866.91 749.303 1866.56 748.33 1866.21 747.327C1865.11 744.201 1864.25 741.612 1864.25 738.276C1847.09 738.606 1829.93 738.936 1812.25 739.276C1809.42 747.694 1809.42 747.694 1806.6 756.119C1806.24 757.167 1805.88 758.216 1805.51 759.296C1805.15 760.369 1804.79 761.443 1804.42 762.549C1802.96 765.967 1801.55 767.626 1798.25 769.276C1793.72 769.535 1789.19 769.547 1784.65 769.571C1782.39 769.589 1780.14 769.632 1777.88 769.677C1776.45 769.687 1775.01 769.695 1773.57 769.702C1771.61 769.724 1771.61 769.724 1769.61 769.746C1766.25 769.276 1766.25 769.276 1763.73 767.687C1762.25 765.276 1762.25 765.276 1762.34 762.005C1763.29 758.105 1764.48 754.366 1765.88 750.608C1766.43 749.1 1766.97 747.592 1767.52 746.083C1767.95 744.905 1767.95 744.905 1768.38 743.703C1769.85 739.601 1771.25 735.476 1772.66 731.35C1772.94 730.502 1773.23 729.654 1773.53 728.779C1774.42 726.174 1775.3 723.569 1776.19 720.964C1779.68 710.711 1783.18 700.463 1786.76 690.245C1789.99 681.073 1793.13 671.874 1796.25 662.669C1800.58 649.931 1804.92 637.198 1809.44 624.526C1809.79 623.535 1810.14 622.543 1810.5 621.522C1814.18 611.31 1815.84 608.135 1827.06 608.038ZM1838.25 649.276C1835.11 656.776 1832.45 664.414 1829.9 672.134C1829.26 674.076 1828.61 676.017 1827.96 677.958C1825.91 684.136 1823.9 690.328 1821.94 696.538C1821.61 697.573 1821.29 698.607 1820.95 699.673C1820.12 702.31 1820.12 702.31 1820.25 705.276C1832.13 705.276 1844.01 705.276 1856.25 705.276C1853.95 697.594 1853.95 697.594 1851.63 689.918C1851.21 688.538 1851.21 688.538 1850.78 687.13C1850.49 686.175 1850.2 685.221 1849.9 684.237C1849.59 683.23 1849.28 682.223 1848.97 681.186C1848 678.008 1847.03 674.829 1846.07 671.651C1845.4 669.481 1844.74 667.31 1844.08 665.139C1842.47 659.852 1840.86 654.564 1839.25 649.276C1838.92 649.276 1838.59 649.276 1838.25 649.276Z" fill="white"></path>
<path d="M1034.29 607.969C1035.1 607.953 1035.91 607.937 1036.74 607.921C1038.04 607.913 1038.04 607.913 1039.37 607.904C1040.27 607.895 1041.17 607.886 1042.09 607.877C1043.99 607.863 1045.88 607.854 1047.78 607.85C1050.68 607.838 1053.57 607.789 1056.47 607.738C1058.32 607.729 1060.16 607.722 1062 607.717C1063.3 607.688 1063.3 607.688 1064.63 607.658C1070.58 607.702 1070.58 607.702 1073.65 610.316C1075.55 613.832 1076.9 617.383 1078.09 621.182C1078.34 621.943 1078.59 622.704 1078.85 623.488C1079.64 625.914 1080.41 628.344 1081.19 630.775C1082.22 633.954 1083.25 637.131 1084.28 640.307C1084.53 641.087 1084.79 641.866 1085.05 642.67C1086.84 648.157 1088.86 653.529 1090.97 658.902C1093.65 665.965 1095.95 673.165 1098.32 680.338C1098.84 681.912 1099.36 683.485 1099.88 685.059C1103.85 697.048 1103.85 697.048 1105.37 701.716C1106.82 706.136 1108.31 710.499 1110.08 714.799C1113.09 722.163 1115.57 729.717 1118.11 737.253C1118.71 739.023 1119.31 740.792 1119.92 742.559C1120.81 745.14 1121.68 747.727 1122.55 750.315C1122.96 751.485 1122.96 751.485 1123.37 752.679C1125.04 757.726 1125.78 761.953 1125.25 767.275C1120.41 770.503 1114.78 769.609 1109.11 769.591C1106.96 769.588 1104.81 769.611 1102.65 769.637C1101.27 769.639 1099.89 769.64 1098.51 769.639C1096.64 769.643 1096.64 769.643 1094.73 769.648C1090.82 769.229 1088.5 768.494 1085.25 766.275C1083.75 763.58 1083.75 763.58 1082.7 760.365C1082.31 759.211 1081.92 758.057 1081.53 756.867C1081.15 755.661 1080.77 754.455 1080.38 753.213C1079.77 751.398 1079.77 751.398 1079.16 749.547C1076.25 740.705 1076.25 740.705 1076.25 738.275C1059.09 738.275 1041.93 738.275 1024.25 738.275C1023.92 739.595 1023.59 740.915 1023.25 742.275C1022.06 746.316 1020.78 750.326 1019.5 754.338C1019.17 755.44 1018.83 756.541 1018.49 757.676C1018.15 758.731 1017.81 759.786 1017.46 760.873C1017.15 761.837 1016.85 762.802 1016.54 763.795C1014.88 766.996 1013.57 767.878 1010.25 769.275C1005.65 769.816 1001.05 769.749 996.423 769.722C994.193 769.713 991.965 769.742 989.735 769.774C988.313 769.775 986.89 769.775 985.468 769.772C984.18 769.773 982.892 769.775 981.565 769.777C978.253 769.275 978.253 769.275 975.677 767.807C973.733 764.351 974.41 762.513 975.448 758.792C975.713 757.961 975.979 757.131 976.253 756.275C976.512 755.453 976.771 754.631 977.038 753.784C977.928 751.075 978.865 748.386 979.815 745.697C980.162 744.702 980.51 743.706 980.867 742.68C981.991 739.46 983.122 736.243 984.253 733.025C985.036 730.783 985.82 728.54 986.602 726.297C988.137 721.9 989.674 717.503 991.213 713.107C993.598 706.294 995.963 699.475 998.315 692.65C998.683 691.585 999.051 690.52 999.43 689.423C1001.67 682.916 1003.89 676.4 1006.09 669.88C1007.5 665.718 1008.91 661.557 1010.32 657.396C1011.34 654.384 1012.36 651.369 1013.37 648.355C1016.64 638.678 1020 629.037 1023.56 619.463C1023.88 618.567 1024.21 617.671 1024.55 616.747C1024.86 615.925 1025.17 615.103 1025.49 614.256C1025.76 613.533 1026.03 612.81 1026.3 612.065C1028.15 608.58 1030.66 608.024 1034.29 607.969ZM1050.25 649.275C1042.11 671.902 1042.11 671.902 1034.5 694.713C1034.26 695.461 1034.02 696.209 1033.78 696.98C1032.88 699.864 1032.25 702.235 1032.25 705.275C1044.13 705.275 1056.01 705.275 1068.25 705.275C1066.78 698.363 1066.78 698.363 1064.81 691.717C1064.54 690.931 1064.27 690.145 1063.99 689.335C1063.71 688.511 1063.42 687.687 1063.13 686.838C1058.89 674.402 1055.07 661.845 1051.25 649.275C1050.92 649.275 1050.59 649.275 1050.25 649.275Z" fill="white"></path>
<path d="M1349.25 607.78C1350.13 607.779 1351 607.777 1351.9 607.776C1353.74 607.777 1355.58 607.789 1357.42 607.81C1360.24 607.839 1363.06 607.83 1365.88 607.817C1367.67 607.823 1369.46 607.832 1371.25 607.843C1372.52 607.838 1372.52 607.838 1373.8 607.834C1377.28 607.89 1379.63 607.939 1382.72 609.604C1385.14 612.248 1386.11 615.38 1387.25 618.714C1387.54 619.52 1387.83 620.326 1388.12 621.157C1391.78 631.548 1395.18 642.028 1398.64 652.485C1402.04 662.724 1405.58 672.899 1409.25 683.042C1413.61 695.158 1417.73 707.356 1421.86 719.554C1425.79 731.157 1429.72 742.75 1434.17 754.164C1435.74 758.285 1437 761.804 1436.25 766.276C1433.88 768.728 1432.45 769.252 1429.03 769.664C1427.79 769.668 1426.54 769.671 1425.26 769.675C1424.25 769.679 1424.25 769.679 1423.22 769.683C1421.81 769.685 1420.4 769.68 1418.98 769.667C1416.83 769.651 1414.67 769.667 1412.52 769.686C1411.14 769.684 1409.76 769.68 1408.38 769.675C1407.13 769.671 1405.89 769.668 1404.6 769.664C1401.01 769.249 1399.13 768.41 1396.25 766.276C1391.25 759.206 1388.51 746.047 1386.25 739.276C1369.09 738.946 1351.93 738.616 1334.25 738.276C1333.59 741.246 1332.93 744.216 1332.25 747.276C1331.37 750.436 1330.35 753.539 1329.32 756.651C1329.06 757.444 1328.81 758.237 1328.55 759.053C1328.3 759.815 1328.05 760.577 1327.79 761.362C1327.56 762.043 1327.34 762.724 1327.11 763.426C1326.12 765.568 1325.07 766.773 1323.25 768.276C1318.04 770.012 1312.46 769.502 1307 769.516C1304.83 769.526 1302.65 769.557 1300.48 769.589C1299.09 769.595 1297.71 769.6 1296.32 769.604C1295.06 769.614 1293.8 769.623 1292.5 769.633C1289.25 769.276 1289.25 769.276 1286.75 768.318C1284.94 765.853 1285.09 765.078 1285.35 762.101C1286.07 757.609 1287.28 753.378 1288.76 749.085C1289.14 747.962 1289.14 747.962 1289.52 746.817C1290.05 745.242 1290.59 743.668 1291.13 742.095C1291.93 739.746 1292.72 737.394 1293.51 735.04C1296.18 727.101 1298.99 719.229 1301.97 711.4C1304.87 703.731 1307.49 695.968 1310.12 688.204C1311.34 684.604 1312.56 681.006 1313.78 677.408C1314.4 675.596 1315.02 673.783 1315.63 671.97C1319.06 661.903 1322.52 651.849 1326 641.803C1327.53 637.388 1329.03 632.964 1330.5 628.53C1330.86 627.463 1331.22 626.396 1331.59 625.296C1332.26 623.309 1332.92 621.32 1333.57 619.326C1333.86 618.453 1334.16 617.579 1334.46 616.678C1334.71 615.92 1334.96 615.162 1335.22 614.381C1338.48 607.723 1342.49 607.69 1349.25 607.78ZM1360.25 649.276C1357.56 655.788 1355.16 662.324 1353.05 669.046C1352.77 669.93 1352.49 670.814 1352.2 671.725C1351.62 673.573 1351.03 675.423 1350.45 677.273C1349.56 680.1 1348.66 682.926 1347.77 685.751C1347.2 687.557 1346.62 689.364 1346.05 691.171C1345.65 692.43 1345.65 692.43 1345.25 693.715C1345 694.503 1344.75 695.291 1344.5 696.104C1344.28 696.791 1344.06 697.478 1343.84 698.186C1343.18 700.517 1342.73 702.901 1342.25 705.276C1354.13 705.276 1366.01 705.276 1378.25 705.276C1375.74 695.216 1375.74 695.216 1372.91 685.272C1372.7 684.583 1372.5 683.893 1372.28 683.183C1371.85 681.747 1371.41 680.311 1370.97 678.876C1370.32 676.714 1369.66 674.551 1369.01 672.387C1366.65 664.596 1364.15 656.886 1361.25 649.276C1360.92 649.276 1360.59 649.276 1360.25 649.276Z" fill="white"></path>
<path d="M1839.25 573.276C1849.15 577.272 1849.15 577.272 1859.25 576.276C1861.14 572.851 1861.14 572.851 1862.25 569.276C1865.06 567.87 1867.49 568.03 1870.63 567.963C1871.77 567.926 1872.91 567.888 1874.09 567.85C1877.25 568.276 1877.25 568.276 1879.64 569.936C1882.66 574.307 1881.9 579.186 1881.25 584.276C1879.64 589.613 1877.05 593.308 1872.25 596.276C1859.24 602.33 1843.06 595.838 1830.47 591.258C1826.33 589.791 1822.7 588.545 1818.25 589.276C1817 591.028 1817 591.028 1816.32 593.276C1815.14 595.483 1815.14 595.483 1813.25 597.276C1807.89 598.239 1801.09 599.06 1796.32 596.057C1793.74 591.733 1794.78 585.745 1795.69 580.987C1797.35 575.624 1800.6 572.33 1805.25 569.276C1816.81 565.424 1828.35 569.374 1839.25 573.276Z" fill="white"></path>
</svg>