<svg width="663" height="659" viewBox="0 0 663 659" fill="none" xmlns="http://www.w3.org/2000/svg">
<path d="M349.717 38.7726C448.698 17.9463 495.604 7.99495 519.471 3.74305C531.418 1.61461 537.512 0.93031 541.449 1.00546C545.328 1.07949 547.075 1.87922 550.546 2.89112C564.091 6.83931 577.291 18.6789 582.53 31.5652C582.675 31.9229 583.032 33.2411 583.611 35.6429C584.179 37.9989 584.941 41.3098 585.894 45.5622C587.8 54.066 590.467 66.3228 593.87 82.2203C600.675 114.015 610.424 160.362 622.921 220.347L661.109 403.646L659.898 409.022C659.796 409.477 659.512 410.232 658.922 411.44C658.34 412.631 657.487 414.209 656.287 416.291C653.889 420.455 650.132 426.585 644.446 435.583C633.077 453.575 614.024 482.987 582.774 530.962C555.365 573.042 536.075 602.445 523.26 621.632C516.852 631.227 512.067 638.261 508.697 643.048C507.011 645.442 505.684 647.266 504.689 648.564C503.664 649.9 503.056 650.587 502.787 650.805L502.786 650.805C499.992 653.066 495.109 654.988 489.975 656.083C484.836 657.179 479.69 657.395 476.401 656.444C469.482 654.443 464.433 651.245 459.937 646.036L455.968 641.437L418.796 465.643L381.57 289.597L381.364 288.621L380.388 288.824L205.076 325.338L29.9803 361.807L25.1131 360.681C9.27495 357.02 -1.04214 341.79 1.34126 325.552C1.77227 322.616 2.52769 320.159 12.5103 304.176C22.4578 288.25 41.4698 259.028 78.2008 202.655C104.877 161.712 124.181 132.304 137.162 112.86C143.653 103.137 148.56 95.9093 152.015 90.9782C153.743 88.512 155.103 86.6273 156.115 85.2943C156.621 84.6273 157.034 84.1057 157.358 83.7221C157.697 83.321 157.898 83.122 157.985 83.0527C159.969 81.4827 163.195 79.5065 165.351 78.5154L165.767 78.3312C165.769 78.3306 165.853 78.3005 166.085 78.2367C166.298 78.1777 166.592 78.1021 166.965 78.009C167.71 77.8233 168.757 77.5742 170.091 77.2652C172.758 76.6474 176.562 75.7923 181.375 74.7273C191.002 72.5976 204.661 69.6293 221.347 66.0392C254.72 58.8592 300.196 49.1926 349.717 38.7726Z" stroke="#00AF42" stroke-width="2"></path>
</svg>